<svg xmlns="http://www.w3.org/2000/svg" width="938" height="240" viewBox="0 0 938.1 240.0" xmlns:c2pa="http://c2pa.org/manifest"><metadata><c2pa:manifest>AAAWgmp1bWIAAAAeanVtZGMycGEAEQAQgAAAqgA4m3EDYzJwYQAAABZcanVtYgAAAEdqdW1kYzJtYQARABCAAACqADibcQN1cm46YzJwYTpiZjYzNDdlNi01NmQ4LTQ4ZjItOTExMy1hNDI5NjJjNDYyNWIAAAADl2p1bWIAAAApanVtZGMyYXMAEQAQgAAAqgA4m3EDYzJwYS5hc3NlcnRpb25zAAAAALxqdW1iAAAARGp1bWRjYm9yABEAEIAAAKoAOJtxE2MycGEuaW5ncmVkaWVudC52MwAAAAAYYzJzaEqLYqUsaw2aE580XKdH+1MAAABwY2JvcqNpZGM6Zm9ybWF0bWltYWdlL3N2Zyt4bWxqaW5zdGFuY2VJRHgseG1wOmlpZDo1NWIxMjc3ZS00MzU5LTQzZDYtYjQ5Ny1lMDgwNWRmZTgxMTBscmVsYXRpb25zaGlwaHBhcmVudE9mAAAB4mp1bWIAAABBanVtZGNib3IAEQAQgAAAqgA4m3ETYzJwYS5hY3Rpb25zLnYyAAAAABhjMnNopNjXn3Oq2yv6rRMfs+bxfAAAAZljYm9yomdhY3Rpb25zgqJmYWN0aW9ua2MycGEub3BlbmVkanBhcmFtZXRlcnOha2luZ3JlZGllbnRzgaJjdXJseC1zZWxmI2p1bWJmPWMycGEuYXNzZXJ0aW9ucy9jMnBhLmluZ3JlZGllbnQudjNkaGFzaFggQtYuVlO/MSf1kldYn31iigB/3/Q6c42+h2snav+xWJ+kZmFjdGlvbngdY29tLmFudGhyb3BpYy5jbGF1ZGUucHJvdmlkZWRqcGFyYW1ldGVyc6F4H2NvbS5hbnRocm9waWMub3JpZ2luLWNvbmZpZGVuY2VndW5rbm93bmtkZXNjcmlwdGlvbnhmQ2xhdWRlIHByb3ZpZGVkIHRoaXMgZmlsZSBhdCB0aGUgcmVxdWVzdCBvZiBhIHVzZXIgYW5kIG1heSBoYXZlIGNyZWF0ZWQgb3IgbW9kaWZpZWQgdGhlIGZpbGUgY29udGVudHMubXNvZnR3YXJlQWdlbnShZG5hbWVmQ2xhdWRlcmFsbEFjdGlvbnNJbmNsdWRlZPUAAADIanVtYgAAAEBqdW1kY2JvcgARABCAAACqADibcRNjMnBhLmhhc2guZGF0YQAAAAAYYzJzaIS0KD4FAjmCopII0NDR0fAAAACAY2JvcqVjYWxnZnNoYTI1NmNwYWRNAAAAAAAAAAAAAAAAAGRoYXNoWCAynwvYwECxx+G+hI3bhD9p2ZxIWhs4J6fOF+U7k+0B0WRuYW1lbmp1bWJmIG1hbmlmZXN0amV4Y2x1c2lvbnOBomVzdGFydBiaZmxlbmd0aBkeBAAAAj5qdW1iAAAAJ2p1bWRjMmNsABEAEIAAAKoAOJtxA2MycGEuY2xhaW0udjIAAAACD2Nib3KlY2FsZ2ZzaGEyNTZpc2lnbmF0dXJleE1zZWxmI2p1bWJmPS9jMnBhL3VybjpjMnBhOmJmNjM0N2U2LTU2ZDgtNDhmMi05MTEzLWE0Mjk2MmM0NjI1Yi9jMnBhLnNpZ25hdHVyZWppbnN0YW5jZUlEeCx4bXA6aWlkOmY0MjU1MjAyLTY1OTAtNGZiYi05NDQzLTQzOGE3MDgyNmE0NnJjcmVhdGVkX2Fzc2VydGlvbnODomN1cmx4LXNlbGYjanVtYmY9YzJwYS5hc3NlcnRpb25zL2MycGEuaW5ncmVkaWVudC52M2RoYXNoWCBC1i5WU78xJ/WSV1iffWKKAH/f9Dpzjb6Haydq/7FYn6JjdXJseCpzZWxmI2p1bWJmPWMycGEuYXNzZXJ0aW9ucy9jMnBhLmFjdGlvbnMudjJkaGFzaFggWZDqMjE8wTMZjaTWej+xUDKyCbzxdly6WvBzedPqoT2iY3VybHgpc2VsZiNqdW1iZj1jMnBhLmFzc2VydGlvbnMvYzJwYS5oYXNoLmRhdGFkaGFzaFgg5Sn7ktCfxxsfs7ICVsK7cU2f619pvjmdNjNPXxWTQzx0Y2xhaW1fZ2VuZXJhdG9yX2luZm+jZG5hbWVvQW50aHJvcGljIEZpbGVzZ3ZlcnNpb25lMS4wLjBrc3BlY1ZlcnNpb25lMi40LjAAABA4anVtYgAAAChqdW1kYzJjcwARABCAAACqADibcQNjMnBhLnNpZ25hdHVyZQAAABAIY2JvctKEWQISogEmGCFZAgowggIGMIIBjaADAgECAhRA5aAK7sI50L64g/oGQgU9Z1UTADAKBggqhkjOPQQDAzBJMRcwFQYDVQQKEw5BbnRocm9waWMsIFBCQzEuMCwGA1UEAxMlQW50aHJvcGljIENvbnRlbnQgQ3JlZGVudGlhbHMgUm9vdCBDQTAeFw0yNjA4MDcxODQzNTZaFw0yODA4MDYxOTQzNTZaMEQxFzAVBgNVBAoTDkFudGhyb3BpYywgUEJDMSkwJwYDVQQDEyBBbnRocm9waWMgQ2xhdWRlIENvbnRlbnQgU2lnbmluZzBZMBMGByqGSM49AgEGCCqGSM49AwEHA0IABJh6CmvLUBgFFNU0vUKlOVtE6djd17L5SuwX0LemFisBM3dkd/3cyjxFA3Qo5S46fX0/ihY0VZ7mfb9KF703t5OjWDBWMA4GA1UdDwEB/wQEAwIHgDAVBgNVHSUEDjAMBgorBgEEAYPoXgIBMAwGA1UdEwEB/wQCMAAwHwYDVR0jBBgwFoAUzlHiBIFOZFsj+OPEz5o+nMHXXMIwCgYIKoZIzj0EAwMDZwAwZAIwMXMdFJ4BetLLVY7ORuE9noqbbAZOZn/aArXyTwFAZfKrPzxF2vPoJNf1+UCdg1XGAjBwX1zd9WGqYkqmL5SFqw1QySjr1zJfpJM9+1rdDwSPLMOPOjKuiXjoU/pUUeG9RwmhY3BhZFkNngAAAAAAAAAAAAAAAAAAAAAAAAAAAAAAAAAAAAAAAAAAAAAAAAAAAAAAAAAAAAAAAAAAAAAAAAAAAAAAAAAAAAAAAAAAAAAAAAAAAAAAAAAAAAAAAAAAAAAAAAAAAAAAAAAAAAAAAAAAAAAAAAAAAAAAAAAAAAAAAAAAAAAAAAAAAAAAAAAAAAAAAAAAAAAAAAAAAAAAAAAAAAAAAAAAAAAAAAAAAAAAAAAAAAAAAAAAAAAAAAAAAAAAAAAAAAAAAAAAAAAAAAAAAAAAAAAAAAAAAAAAAAAAAAAAAAAAAAAAAAAAAAAAAAAAAAAAAAAAAAAAAAAAAAAAAAAAAAAAAAAAAAAAAAAAAAAAAAAAAAAAAAAAAAAAAAAAAAAAAAAAAAAAAAAAAAAAAAAAAAAAAAAAAAAAAAAAAAAAAAAAAAAAAAAAAAAAAAAAAAAAAAAAAAAAAAAAAAAAAAAAAAAAAAAAAAAAAAAAAAAAAAAAAAAAAAAAAAAAAAAAAAAAAAAAAAAAAAAAAAAAAAAAAAAAAAAAAAAAAAAAAAAAAAAAAAAAAAAAAAAAAAAAAAAAAAAAAAAAAAAAAAAAAAAAAAAAAAAAAAAAAAAAAAAAAAAAAAAAAAAAAAAAAAAAAAAAAAAAAAAAAAAAAAAAAAAAAAAAAAAAAAAAAAAAAAAAAAAAAAAAAAAAAAAAAAAAAAAAAAAAAAAAAAAAAAAAAAAAAAAAAAAAAAAAAAAAAAAAAAAAAAAAAAAAAAAAAAAAAAAAAAAAAAAAAAAAAAAAAAAAAAAAAAAAAAAAAAAAAAAAAAAAAAAAAAAAAAAAAAAAAAAAAAAAAAAAAAAAAAAAAAAAAAAAAAAAAAAAAAAAAAAAAAAAAAAAAAAAAAAAAAAAAAAAAAAAAAAAAAAAAAAAAAAAAAAAAAAAAAAAAAAAAAAAAAAAAAAAAAAAAAAAAAAAAAAAAAAAAAAAAAAAAAAAAAAAAAAAAAAAAAAAAAAAAAAAAAAAAAAAAAAAAAAAAAAAAAAAAAAAAAAAAAAAAAAAAAAAAAAAAAAAAAAAAAAAAAAAAAAAAAAAAAAAAAAAAAAAAAAAAAAAAAAAAAAAAAAAAAAAAAAAAAAAAAAAAAAAAAAAAAAAAAAAAAAAAAAAAAAAAAAAAAAAAAAAAAAAAAAAAAAAAAAAAAAAAAAAAAAAAAAAAAAAAAAAAAAAAAAAAAAAAAAAAAAAAAAAAAAAAAAAAAAAAAAAAAAAAAAAAAAAAAAAAAAAAAAAAAAAAAAAAAAAAAAAAAAAAAAAAAAAAAAAAAAAAAAAAAAAAAAAAAAAAAAAAAAAAAAAAAAAAAAAAAAAAAAAAAAAAAAAAAAAAAAAAAAAAAAAAAAAAAAAAAAAAAAAAAAAAAAAAAAAAAAAAAAAAAAAAAAAAAAAAAAAAAAAAAAAAAAAAAAAAAAAAAAAAAAAAAAAAAAAAAAAAAAAAAAAAAAAAAAAAAAAAAAAAAAAAAAAAAAAAAAAAAAAAAAAAAAAAAAAAAAAAAAAAAAAAAAAAAAAAAAAAAAAAAAAAAAAAAAAAAAAAAAAAAAAAAAAAAAAAAAAAAAAAAAAAAAAAAAAAAAAAAAAAAAAAAAAAAAAAAAAAAAAAAAAAAAAAAAAAAAAAAAAAAAAAAAAAAAAAAAAAAAAAAAAAAAAAAAAAAAAAAAAAAAAAAAAAAAAAAAAAAAAAAAAAAAAAAAAAAAAAAAAAAAAAAAAAAAAAAAAAAAAAAAAAAAAAAAAAAAAAAAAAAAAAAAAAAAAAAAAAAAAAAAAAAAAAAAAAAAAAAAAAAAAAAAAAAAAAAAAAAAAAAAAAAAAAAAAAAAAAAAAAAAAAAAAAAAAAAAAAAAAAAAAAAAAAAAAAAAAAAAAAAAAAAAAAAAAAAAAAAAAAAAAAAAAAAAAAAAAAAAAAAAAAAAAAAAAAAAAAAAAAAAAAAAAAAAAAAAAAAAAAAAAAAAAAAAAAAAAAAAAAAAAAAAAAAAAAAAAAAAAAAAAAAAAAAAAAAAAAAAAAAAAAAAAAAAAAAAAAAAAAAAAAAAAAAAAAAAAAAAAAAAAAAAAAAAAAAAAAAAAAAAAAAAAAAAAAAAAAAAAAAAAAAAAAAAAAAAAAAAAAAAAAAAAAAAAAAAAAAAAAAAAAAAAAAAAAAAAAAAAAAAAAAAAAAAAAAAAAAAAAAAAAAAAAAAAAAAAAAAAAAAAAAAAAAAAAAAAAAAAAAAAAAAAAAAAAAAAAAAAAAAAAAAAAAAAAAAAAAAAAAAAAAAAAAAAAAAAAAAAAAAAAAAAAAAAAAAAAAAAAAAAAAAAAAAAAAAAAAAAAAAAAAAAAAAAAAAAAAAAAAAAAAAAAAAAAAAAAAAAAAAAAAAAAAAAAAAAAAAAAAAAAAAAAAAAAAAAAAAAAAAAAAAAAAAAAAAAAAAAAAAAAAAAAAAAAAAAAAAAAAAAAAAAAAAAAAAAAAAAAAAAAAAAAAAAAAAAAAAAAAAAAAAAAAAAAAAAAAAAAAAAAAAAAAAAAAAAAAAAAAAAAAAAAAAAAAAAAAAAAAAAAAAAAAAAAAAAAAAAAAAAAAAAAAAAAAAAAAAAAAAAAAAAAAAAAAAAAAAAAAAAAAAAAAAAAAAAAAAAAAAAAAAAAAAAAAAAAAAAAAAAAAAAAAAAAAAAAAAAAAAAAAAAAAAAAAAAAAAAAAAAAAAAAAAAAAAAAAAAAAAAAAAAAAAAAAAAAAAAAAAAAAAAAAAAAAAAAAAAAAAAAAAAAAAAAAAAAAAAAAAAAAAAAAAAAAAAAAAAAAAAAAAAAAAAAAAAAAAAAAAAAAAAAAAAAAAAAAAAAAAAAAAAAAAAAAAAAAAAAAAAAAAAAAAAAAAAAAAAAAAAAAAAAAAAAAAAAAAAAAAAAAAAAAAAAAAAAAAAAAAAAAAAAAAAAAAAAAAAAAAAAAAAAAAAAAAAAAAAAAAAAAAAAAAAAAAAAAAAAAAAAAAAAAAAAAAAAAAAAAAAAAAAAAAAAAAAAAAAAAAAAAAAAAAAAAAAAAAAAAAAAAAAAAAAAAAAAAAAAAAAAAAAAAAAAAAAAAAAAAAAAAAAAAAAAAAAAAAAAAAAAAAAAAAAAAAAAAAAAAAAAAAAAAAAAAAAAAAAAAAAAAAAAAAAAAAAAAAAAAAAAAAAAAAAAAAAAAAAAAAAAAAAAAAAAAAAAAAAAAAAAAAAAAAAAAAAAAAAAAAAAAAAAAAAAAAAAAAAAAAAAAAAAAAAAAAAAAAAAAAAAAAAAAAAAAAAAAAAAAAAAAAAAAAAAAAAAAAAAAAAAAAAAAAAAAAAAAAAAAAAAAAAAAAAAAAAAAAAAAAAAAAAAAAAAAAAAAAAAAAAAAAAAAAAAAAAAAAAAAAAAAAAAAAAAAAAAAAAAAAAAAAAAAAAAAAAAAAAAAAAAAAAAAAAAAAAAAAAAAAAAAAAAAAAAAAAAAAAAAAAAAAAAAAAAAAAAAAAAAAAAAAAAAAAAAAAAAAAAAAAAAAAAAAAAAAAAAAAAAAAAAAAAAAAAAAAAAAAAAAAAAAAAAAAAAAAAAAAAAAAAAAAAAAAAAAAAAAAAAAAAAAAAAAAAAAAAAAAAAAAAAAAAAAAAAAAAAAAAAAAAAAAAAAAAAAAAAAAAAAAAAAAAAAAAAAAAAAAAAAAAAAAAAAAAAAAAAAAAAAAAAAAAAAAAAAAAAAAAAAAAAAAAAAAAAAAAAAAAAAAAAAAAAAAAAAAAAAAAAAAAAAAAAAAAAAAAAAAAAAAAAAAAAAAAAAAAAAAAAAAAAAAAAAAAAAAAAAAAAAAAAAAAAAAAAAAAAAAAAAAAAAAAAAAAAAAAAAAAAAAAAAAAAAAAAAAAAAAAAAAAAAAAAAAAAAAAAAAAAAAAAAAAAAAAAAAAAAAAAAAAAAAAAAAAAAAAAAAAAAAAAAAAAAAAAAAAAAAAAAAAAAAAAAAAAAAAAAAAAAAAAAAAAAAAAAAAAAAAAAAAAAAAAAAAAAAAAAAAAAAAAAAAAAAAAAAAAAAAAAAAAAAAAAAAAAAAAAAAAAAAAAAAAAAAAAAAAAAAAAAAAAAAAAAAAAAAAAAAAAAAAAAAAAAAAAAAAAAAAAAAAAAAAAAAAAAAAAAAAAAAAAAAAAAAAAAAAAAAAAAAAAAAAAAAAAAAAAAAAAAAAAAAAAAAAAAAAAAAAAAAAAAAAAAAAAAAAAAAAAAAAAAAAAAAAAAAAAAAAAAAAAAAAAAAAAAAAAAAAAAAAAAAAAAAAAAAAAAAAAAAAAAAAAAAAAAAAAAAAAAAAAAAAAAAAAAAAAAAAAAAAAAAAAAAAAAAAAAAAAAAAAAAAAAAAAAAAAAAAAAAAAAAAAAAAAAAAAAAAAAAAAAAAAAAAAAAAAAAAAAAAAAAAAAAAAAAAAAAAAAAAAAAAAAAAAAAAAAAAAAAAAAAAAAAAAAAAAAAAAAAAAAAAAAAAAAAAAAAAAAAAAAAAAAAAAAAAAAAAAAAAAAAAAAAAAAAAAAAAAAAAAAAAAAAAAAAAAAAAAAAAAAAAAAAAAAAAAAAAAAAAAAAAAAAAAAAAAAAAAAAAAAAAAAAAAAAAAAAAAAAAAAAAAAAAAAAAAAAAAAAAAAAAAAAAAAAAAAAAAAAAAAAAAAAAAAAAAAAAAAAAAAAAAAAAAAAAAAAAAAAAAAAPZYQMRDVEdB+VIHrGU6fZEV//GYfAUmGldmyDBUBwGh2VziYT0fr9WExfdMfDFqUSi9mJuNwKE0Ng3GMIFnnfc9uXs=</c2pa:manifest></metadata><g transform="translate(0,0) scale(2)"><defs><linearGradient id="Ib" x1="0" y1="0" x2="0" y2="1" gradientUnits="objectBoundingBox"><stop offset="0" stop-color="#fff1b0"/><stop offset="0.45" stop-color="#ffb000"/><stop offset="1" stop-color="#ff6a00"/></linearGradient><pattern id="Is" width="4" height="4" patternUnits="userSpaceOnUse"><rect width="4" height="2" fill="#0d1218"/></pattern></defs>
<rect x="2" y="2" width="116" height="116" rx="22" fill="#11131a"/><rect x="2" y="2" width="113" height="113" rx="21" fill="#4a5068"/>
<rect x="5" y="5" width="110" height="110" rx="19" fill="#2b2f3d"/><rect x="15" y="15" width="90" height="90" rx="10" fill="#07090c"/>
<rect x="15" y="15" width="90" height="90" rx="10" fill="url(#Is)"/>
<g fill="#4a3608"><rect x="22" y="84" width="6" height="14"/><rect x="31" y="78" width="6" height="20"/><rect x="40" y="88" width="6" height="10"/><rect x="76" y="80" width="6" height="18"/><rect x="85" y="72" width="6" height="26"/><rect x="94" y="86" width="6" height="12"/></g>
<polygon points="72,16 38,66 60,66 50,108 92,52 69,52 84,16" fill="#6b3300"/>
<polygon points="68,12 34,62 56,62 46,104 88,48 65,48 80,12" fill="url(#Ib)" stroke="#fff6d6" stroke-width="1.6" stroke-linejoin="round"/></g><path d="M279.25 60.0V47.0H282.5V43.75H289.0V47.0H292.25V60.0H289.0V53.5H282.5V60.0ZM282.5 50.25H289.0V47.13H282.5ZM314.0 60.0V56.75H310.75V43.75H314.0V56.75H317.25V60.0ZM323.75 56.75V43.75H327.0V56.75ZM320.5 60.0V56.75H317.25V47.0H320.5V56.75H323.75V60.0ZM348.75 47.0V43.75H358.5V47.0ZM355.25 56.75V53.5H348.75V50.25H345.5V47.0H348.75V50.25H355.25V53.5H358.5V56.75ZM345.5 60.0V56.75H355.25V60.0Z" fill="#5b6074"/><path d="M338.34375 122.53125H299.859375V110.25H338.34375ZM343.828125 150.0H299.859375Q297.328125 150.0 294.328125 149.109375Q291.328125 148.21875 288.7734375 146.1796875Q286.21875 144.140625 284.5078125 140.8828125Q282.796875 137.625 282.796875 132.890625V88.921875Q282.796875 87.65625 283.265625 86.53125Q283.734375 85.40625 284.5546875 84.5625Q285.375 83.71875 286.5 83.25Q287.625 82.78125 288.9375 82.78125H343.828125V94.96875H294.984375V132.890625Q294.984375 135.28125 296.25 136.546875Q297.515625 137.8125 299.953125 137.8125H343.828125ZM422.859375 82.78125 391.03125 147.609375Q390.28125 149.109375 388.8046875 150.0234375Q387.328125 150.9375 385.546875 150.9375Q383.8125 150.9375 382.3359375 150.0234375Q380.859375 149.109375 380.0625 147.609375L348.28125 82.78125H361.921875L385.546875 131.203125L409.265625 82.78125ZM485.015625 122.53125H446.53125V110.25H485.015625ZM490.5 150.0H446.53125Q444.0 150.0 441.0 149.109375Q438.0 148.21875 435.4453125 146.1796875Q432.890625 144.140625 431.1796875 140.8828125Q429.46875 137.625 429.46875 132.890625V88.921875Q429.46875 87.65625 429.9375 86.53125Q430.40625 85.40625 431.2265625 84.5625Q432.046875 83.71875 433.171875 83.25Q434.296875 82.78125 435.609375 82.78125H490.5V94.96875H441.65625V132.890625Q441.65625 135.28125 442.921875 136.546875Q444.1875 137.8125 446.625 137.8125H490.5ZM569.4375 144.796875Q569.4375 146.109375 568.9453125 147.234375Q568.453125 148.359375 567.6328125 149.1796875Q566.8125 150.0 565.6875 150.46875Q564.5625 150.9375 563.296875 150.9375Q562.171875 150.9375 561.0234375 150.515625Q559.875 150.09375 558.984375 149.15625L514.453125 102.65625V150.0H502.265625V87.984375Q502.265625 86.109375 503.3203125 84.5859375Q504.375 83.0625 506.015625 82.3125Q507.75 81.609375 509.578125 81.9609375Q511.40625 82.3125 512.71875 83.671875L557.25 130.125V82.78125H569.4375ZM644.34375 94.96875H617.484375V150.0H605.296875V94.96875H578.390625V82.78125H644.34375Z" fill="#1d2029"/><path d="M745.25 150.0H733.0625V133.5H690.21875V150.0H678.03125V116.390625Q678.03125 109.03125 680.5625 102.84375Q683.09375 96.65625 687.59375 92.203125Q692.09375 87.75 698.234375 85.265625Q704.375 82.78125 711.640625 82.78125H739.109375Q740.375 82.78125 741.5 83.25Q742.625 83.71875 743.46875 84.5625Q744.3125 85.40625 744.78125 86.53125Q745.25 87.65625 745.25 88.921875ZM690.21875 121.3125H733.0625V94.96875H711.640625Q711.078125 94.96875 709.2734375 95.1328125Q707.46875 95.296875 705.1015625 95.953125Q702.734375 96.609375 700.109375 97.96875Q697.484375 99.328125 695.28125 101.71875Q693.078125 104.109375 691.6484375 107.6953125Q690.21875 111.28125 690.21875 116.390625ZM837.640625 150.0H825.359375V109.96875L803.75 147.984375Q802.953125 149.4375 801.5234375 150.1875Q800.09375 150.9375 798.453125 150.9375Q796.859375 150.9375 795.4765625 150.1875Q794.09375 149.4375 793.296875 147.984375L771.59375 109.96875V150.0H759.40625V87.984375Q759.40625 85.875 760.6484375 84.234375Q761.890625 82.59375 763.90625 82.03125Q764.890625 81.796875 765.875 81.8671875Q766.859375 81.9375 767.7734375 82.2890625Q768.6875 82.640625 769.4375 83.2734375Q770.1875 83.90625 770.703125 84.796875L798.453125 133.03125L826.203125 84.796875Q827.28125 83.015625 829.1796875 82.265625Q831.078125 81.515625 833.140625 82.03125Q835.109375 82.59375 836.375 84.234375Q837.640625 85.875 837.640625 87.984375ZM918.78125 110.90625Q918.78125 115.078125 917.75 118.359375Q916.71875 121.640625 914.9609375 124.1484375Q913.203125 126.65625 910.90625 128.4375Q908.609375 130.21875 906.1015625 131.34375Q903.59375 132.46875 901.0390625 132.984375Q898.484375 133.5 896.234375 133.5H868.671875V121.3125H896.234375Q898.578125 121.125 900.4765625 120.3515625Q902.375 119.578125 903.734375 118.265625Q905.09375 116.953125 905.84375 115.1015625Q906.59375 113.25 906.59375 110.90625V105.375Q906.359375 103.078125 905.609375 101.15625Q904.859375 99.234375 903.5703125 97.875Q902.28125 96.515625 900.453125 95.7421875Q898.625 94.96875 896.234375 94.96875H868.765625Q866.328125 94.96875 865.0625 96.234375Q863.796875 97.5 863.796875 99.890625V150.0H851.609375V99.890625Q851.609375 95.203125 853.3203125 91.921875Q855.03125 88.640625 857.5859375 86.625Q860.140625 84.609375 863.140625 83.6953125Q866.140625 82.78125 868.671875 82.78125H896.234375Q900.359375 82.78125 903.640625 83.8359375Q906.921875 84.890625 909.4296875 86.6484375Q911.9375 88.40625 913.6953125 90.703125Q915.453125 93.0 916.6015625 95.5078125Q917.75 98.015625 918.265625 100.5703125Q918.78125 103.125 918.78125 105.375Z" fill="#d45a00"/><path d="M289.648 195.6Q289.648 196.336 289.52 196.88Q289.648 197.392 289.648 198.16Q289.648 198.896 289.52 199.44H288.24Q288.368 199.952 288.368 200.72Q288.368 201.456 288.24 202.0H280.56Q280.432 201.456 280.432 200.72Q280.432 199.952 280.56 199.44H279.28Q279.152 198.896 279.152 198.16Q279.152 197.392 279.28 196.88H281.84Q281.968 197.392 281.968 198.16Q281.968 198.896 281.84 199.44H286.96Q286.832 198.896 286.832 198.16Q286.832 197.392 286.96 196.88Q286.832 196.336 286.832 195.6Q286.832 194.832 286.96 194.32H280.56Q280.432 193.776 280.432 193.04Q280.432 192.272 280.56 191.76H279.28Q279.152 191.216 279.152 190.48Q279.152 189.712 279.28 189.2Q279.152 188.656 279.152 187.92Q279.152 187.152 279.28 186.64H280.56Q280.432 186.096 280.432 185.36Q280.432 184.59199999999998 280.56 184.07999999999998H288.24Q288.368 184.59199999999998 288.368 185.36Q288.368 186.096 288.24 186.64H289.52Q289.648 187.152 289.648 187.92Q289.648 188.656 289.52 189.2H286.96Q286.832 188.656 286.832 187.92Q286.832 187.152 286.96 186.64H281.84Q281.968 187.152 281.968 187.92Q281.968 188.656 281.84 189.2Q281.968 189.712 281.968 190.48Q281.968 191.216 281.84 191.76H288.24Q288.368 192.272 288.368 193.04Q288.368 193.776 288.24 194.32H289.52Q289.648 194.832 289.648 195.6ZM298.92 194.32Q299.048 194.832 299.048 195.6Q299.048 196.336 298.92 196.88Q299.048 197.392 299.048 198.16Q299.048 198.896 298.92 199.44H304.04Q304.168 199.952 304.168 200.72Q304.168 201.456 304.04 202.0H296.36Q296.232 201.456 296.232 200.72Q296.232 199.952 296.36 199.44Q296.232 198.896 296.232 198.16Q296.232 197.392 296.36 196.88Q296.232 196.336 296.232 195.6Q296.232 194.832 296.36 194.32Q296.232 193.776 296.232 193.04Q296.232 192.272 296.36 191.76Q296.232 191.216 296.232 190.48Q296.232 189.712 296.36 189.2Q296.232 188.656 296.232 187.92Q296.232 187.152 296.36 186.64Q296.232 186.096 296.232 185.36Q296.232 184.59199999999998 296.36 184.07999999999998H304.04Q304.168 184.59199999999998 304.168 185.36Q304.168 186.096 304.04 186.64H298.92Q299.048 187.152 299.048 187.92Q299.048 188.656 298.92 189.2Q299.048 189.712 299.048 190.48Q299.048 191.216 298.92 191.76H304.04Q304.168 192.272 304.168 193.04Q304.168 193.776 304.04 194.32ZM321.24800000000005 195.6Q321.24800000000005 196.336 321.12 196.88Q321.24800000000005 197.392 321.24800000000005 198.16Q321.24800000000005 198.896 321.12 199.44H319.84000000000003Q319.968 199.952 319.968 200.72Q319.968 201.456 319.84000000000003 202.0H312.16Q312.03200000000004 201.456 312.03200000000004 200.72Q312.03200000000004 199.952 312.16 199.44H310.88Q310.752 198.896 310.752 198.16Q310.752 197.392 310.88 196.88H313.44Q313.56800000000004 197.392 313.56800000000004 198.16Q313.56800000000004 198.896 313.44 199.44H318.56Q318.432 198.896 318.432 198.16Q318.432 197.392 318.56 196.88Q318.432 196.336 318.432 195.6Q318.432 194.832 318.56 194.32H312.16Q312.03200000000004 193.776 312.03200000000004 193.04Q312.03200000000004 192.272 312.16 191.76H310.88Q310.752 191.216 310.752 190.48Q310.752 189.712 310.88 189.2Q310.752 188.656 310.752 187.92Q310.752 187.152 310.88 186.64H312.16Q312.03200000000004 186.096 312.03200000000004 185.36Q312.03200000000004 184.59199999999998 312.16 184.07999999999998H319.84000000000003Q319.968 184.59199999999998 319.968 185.36Q319.968 186.096 319.84000000000003 186.64H321.12Q321.24800000000005 187.152 321.24800000000005 187.92Q321.24800000000005 188.656 321.12 189.2H318.56Q318.432 188.656 318.432 187.92Q318.432 187.152 318.56 186.64H313.44Q313.56800000000004 187.152 313.56800000000004 187.92Q313.56800000000004 188.656 313.44 189.2Q313.56800000000004 189.712 313.56800000000004 190.48Q313.56800000000004 191.216 313.44 191.76H319.84000000000003Q319.968 192.272 319.968 193.04Q319.968 193.776 319.84000000000003 194.32H321.12Q321.24800000000005 194.832 321.24800000000005 195.6ZM337.04800000000006 195.6Q337.04800000000006 196.336 336.92 196.88Q337.04800000000006 197.392 337.04800000000006 198.16Q337.04800000000006 198.896 336.92 199.44H335.64000000000004Q335.76800000000003 199.952 335.76800000000003 200.72Q335.76800000000003 201.456 335.64000000000004 202.0H327.96000000000004Q327.83200000000005 201.456 327.83200000000005 200.72Q327.83200000000005 199.952 327.96000000000004 199.44H326.68Q326.552 198.896 326.552 198.16Q326.552 197.392 326.68 196.88H329.24Q329.36800000000005 197.392 329.36800000000005 198.16Q329.36800000000005 198.896 329.24 199.44H334.36Q334.232 198.896 334.232 198.16Q334.232 197.392 334.36 196.88Q334.232 196.336 334.232 195.6Q334.232 194.832 334.36 194.32H327.96000000000004Q327.83200000000005 193.776 327.83200000000005 193.04Q327.83200000000005 192.272 327.96000000000004 191.76H326.68Q326.552 191.216 326.552 190.48Q326.552 189.712 326.68 189.2Q326.552 188.656 326.552 187.92Q326.552 187.152 326.68 186.64H327.96000000000004Q327.83200000000005 186.096 327.83200000000005 185.36Q327.83200000000005 184.59199999999998 327.96000000000004 184.07999999999998H335.64000000000004Q335.76800000000003 184.59199999999998 335.76800000000003 185.36Q335.76800000000003 186.096 335.64000000000004 186.64H336.92Q337.04800000000006 187.152 337.04800000000006 187.92Q337.04800000000006 188.656 336.92 189.2H334.36Q334.232 188.656 334.232 187.92Q334.232 187.152 334.36 186.64H329.24Q329.36800000000005 187.152 329.36800000000005 187.92Q329.36800000000005 188.656 329.24 189.2Q329.36800000000005 189.712 329.36800000000005 190.48Q329.36800000000005 191.216 329.24 191.76H335.64000000000004Q335.76800000000003 192.272 335.76800000000003 193.04Q335.76800000000003 193.776 335.64000000000004 194.32H336.92Q337.04800000000006 194.832 337.04800000000006 195.6ZM350.80000000000007 199.44Q350.92800000000005 199.952 350.92800000000005 200.72Q350.92800000000005 201.456 350.80000000000007 202.0H344.40000000000003Q344.27200000000005 201.456 344.27200000000005 200.72Q344.27200000000005 199.952 344.40000000000003 199.44H346.32000000000005Q346.19200000000006 198.896 346.19200000000006 198.16Q346.19200000000006 197.392 346.32000000000005 196.88Q346.19200000000006 196.336 346.19200000000006 195.6Q346.19200000000006 194.832 346.32000000000005 194.32Q346.19200000000006 193.776 346.19200000000006 193.04Q346.19200000000006 192.272 346.32000000000005 191.76Q346.19200000000006 191.216 346.19200000000006 190.48Q346.19200000000006 189.712 346.32000000000005 189.2Q346.19200000000006 188.656 346.19200000000006 187.92Q346.19200000000006 187.152 346.32000000000005 186.64H344.40000000000003Q344.27200000000005 186.096 344.27200000000005 185.36Q344.27200000000005 184.59199999999998 344.40000000000003 184.07999999999998H350.80000000000007Q350.92800000000005 184.59199999999998 350.92800000000005 185.36Q350.92800000000005 186.096 350.80000000000007 186.64H348.88000000000005Q349.00800000000004 187.152 349.00800000000004 187.92Q349.00800000000004 188.656 348.88000000000005 189.2Q349.00800000000004 189.712 349.00800000000004 190.48Q349.00800000000004 191.216 348.88000000000005 191.76Q349.00800000000004 192.272 349.00800000000004 193.04Q349.00800000000004 193.776 348.88000000000005 194.32Q349.00800000000004 194.832 349.00800000000004 195.6Q349.00800000000004 196.336 348.88000000000005 196.88Q349.00800000000004 197.392 349.00800000000004 198.16Q349.00800000000004 198.896 348.88000000000005 199.44ZM368.6480000000001 193.04Q368.6480000000001 193.776 368.52000000000004 194.32Q368.6480000000001 194.832 368.6480000000001 195.6Q368.6480000000001 196.336 368.52000000000004 196.88H367.56000000000006Q367.68800000000005 197.392 367.68800000000005 198.16Q367.68800000000005 198.896 367.56000000000006 199.44H365.96000000000004Q366.0880000000001 199.952 366.0880000000001 200.72Q366.0880000000001 201.456 365.96000000000004 202.0H360.84000000000003Q360.71200000000005 201.456 360.71200000000005 200.72Q360.71200000000005 199.952 360.84000000000003 199.44H359.24000000000007Q359.1120000000001 198.896 359.1120000000001 198.16Q359.1120000000001 197.392 359.24000000000007 196.88H358.28000000000003Q358.15200000000004 196.336 358.15200000000004 195.6Q358.15200000000004 194.832 358.28000000000003 194.32Q358.15200000000004 193.776 358.15200000000004 193.04Q358.15200000000004 192.272 358.28000000000003 191.76Q358.15200000000004 191.216 358.15200000000004 190.48Q358.15200000000004 189.712 358.28000000000003 189.2H359.24000000000007Q359.1120000000001 188.656 359.1120000000001 187.92Q359.1120000000001 187.152 359.24000000000007 186.64H360.84000000000003Q360.71200000000005 186.096 360.71200000000005 185.36Q360.71200000000005 184.59199999999998 360.84000000000003 184.07999999999998H365.96000000000004Q366.0880000000001 184.59199999999998 366.0880000000001 185.36Q366.0880000000001 186.096 365.96000000000004 186.64H367.56000000000006Q367.68800000000005 187.152 367.68800000000005 187.92Q367.68800000000005 188.656 367.56000000000006 189.2H368.52000000000004Q368.6480000000001 189.712 368.6480000000001 190.48Q368.6480000000001 191.216 368.52000000000004 191.76Q368.6480000000001 192.272 368.6480000000001 193.04ZM365.83200000000005 195.6Q365.83200000000005 194.832 365.96000000000004 194.32Q365.83200000000005 193.776 365.83200000000005 193.04Q365.83200000000005 192.272 365.96000000000004 191.76Q365.83200000000005 191.216 365.83200000000005 190.48Q365.83200000000005 189.712 365.96000000000004 189.2H365.00000000000006Q364.87200000000007 188.656 364.87200000000007 187.92Q364.87200000000007 187.152 365.00000000000006 186.64H361.80000000000007Q361.92800000000005 187.152 361.92800000000005 187.92Q361.92800000000005 188.656 361.80000000000007 189.2H360.84000000000003Q360.9680000000001 189.712 360.9680000000001 190.48Q360.9680000000001 191.216 360.84000000000003 191.76Q360.9680000000001 192.272 360.9680000000001 193.04Q360.9680000000001 193.776 360.84000000000003 194.32Q360.9680000000001 194.832 360.9680000000001 195.6Q360.9680000000001 196.336 360.84000000000003 196.88H361.80000000000007Q361.92800000000005 197.392 361.92800000000005 198.16Q361.92800000000005 198.896 361.80000000000007 199.44H365.00000000000006Q364.87200000000007 198.896 364.87200000000007 198.16Q364.87200000000007 197.392 365.00000000000006 196.88H365.96000000000004Q365.83200000000005 196.336 365.83200000000005 195.6ZM384.4480000000001 187.92Q384.4480000000001 188.656 384.32000000000005 189.2Q384.4480000000001 189.712 384.4480000000001 190.48Q384.4480000000001 191.216 384.32000000000005 191.76Q384.4480000000001 192.272 384.4480000000001 193.04Q384.4480000000001 193.776 384.32000000000005 194.32Q384.4480000000001 194.832 384.4480000000001 195.6Q384.4480000000001 196.336 384.32000000000005 196.88Q384.4480000000001 197.392 384.4480000000001 198.16Q384.4480000000001 198.896 384.32000000000005 199.44Q384.4480000000001 199.952 384.4480000000001 200.72Q384.4480000000001 201.456 384.32000000000005 202.0H381.76000000000005Q381.63200000000006 201.456 381.63200000000006 200.72Q381.63200000000006 199.952 381.76000000000005 199.44H380.1600000000001Q380.0320000000001 198.896 380.0320000000001 198.16Q380.0320000000001 197.392 380.1600000000001 196.88H379.20000000000005Q379.07200000000006 196.336 379.07200000000006 195.6Q379.07200000000006 194.832 379.20000000000005 194.32H377.9200000000001Q377.7920000000001 193.776 377.7920000000001 193.04Q377.7920000000001 192.272 377.9200000000001 191.76H376.64000000000004Q376.7680000000001 192.272 376.7680000000001 193.04Q376.7680000000001 193.776 376.64000000000004 194.32Q376.7680000000001 194.832 376.7680000000001 195.6Q376.7680000000001 196.336 376.64000000000004 196.88Q376.7680000000001 197.392 376.7680000000001 198.16Q376.7680000000001 198.896 376.64000000000004 199.44Q376.7680000000001 199.952 376.7680000000001 200.72Q376.7680000000001 201.456 376.64000000000004 202.0H374.08000000000004Q373.95200000000006 201.456 373.95200000000006 200.72Q373.95200000000006 199.952 374.08000000000004 199.44Q373.95200000000006 198.896 373.95200000000006 198.16Q373.95200000000006 197.392 374.08000000000004 196.88Q373.95200000000006 196.336 373.95200000000006 195.6Q373.95200000000006 194.832 374.08000000000004 194.32Q373.95200000000006 193.776 373.95200000000006 193.04Q373.95200000000006 192.272 374.08000000000004 191.76Q373.95200000000006 191.216 373.95200000000006 190.48Q373.95200000000006 189.712 374.08000000000004 189.2Q373.95200000000006 188.656 373.95200000000006 187.92Q373.95200000000006 187.152 374.08000000000004 186.64Q373.95200000000006 186.096 373.95200000000006 185.36Q373.95200000000006 184.59199999999998 374.08000000000004 184.07999999999998H377.2800000000001Q377.4080000000001 184.59199999999998 377.4080000000001 185.36Q377.4080000000001 186.096 377.2800000000001 186.64H378.24000000000007Q378.36800000000005 187.152 378.36800000000005 187.92Q378.36800000000005 188.656 378.24000000000007 189.2H379.20000000000005Q379.3280000000001 189.712 379.3280000000001 190.48Q379.3280000000001 191.216 379.20000000000005 191.76H380.4800000000001Q380.60800000000006 192.272 380.60800000000006 193.04Q380.60800000000006 193.776 380.4800000000001 194.32H381.76000000000005Q381.63200000000006 193.776 381.63200000000006 193.04Q381.63200000000006 192.272 381.76000000000005 191.76Q381.63200000000006 191.216 381.63200000000006 190.48Q381.63200000000006 189.712 381.76000000000005 189.2Q381.63200000000006 188.656 381.63200000000006 187.92Q381.63200000000006 187.152 381.76000000000005 186.64Q381.63200000000006 186.096 381.63200000000006 185.36Q381.63200000000006 184.59199999999998 381.76000000000005 184.07999999999998H384.32000000000005Q384.4480000000001 184.59199999999998 384.4480000000001 185.36Q384.4480000000001 186.096 384.32000000000005 186.64Q384.4480000000001 187.152 384.4480000000001 187.92ZM415.9200000000001 189.2Q416.0480000000001 189.712 416.0480000000001 190.48Q416.0480000000001 191.216 415.9200000000001 191.76H414.6400000000001Q414.7680000000001 192.272 414.7680000000001 193.04Q414.7680000000001 193.776 414.6400000000001 194.32H408.24000000000007Q408.3680000000001 194.832 408.3680000000001 195.6Q408.3680000000001 196.336 408.24000000000007 196.88Q408.3680000000001 197.392 408.3680000000001 198.16Q408.3680000000001 198.896 408.24000000000007 199.44Q408.3680000000001 199.952 408.3680000000001 200.72Q408.3680000000001 201.456 408.24000000000007 202.0H405.68000000000006Q405.5520000000001 201.456 405.5520000000001 200.72Q405.5520000000001 199.952 405.68000000000006 199.44Q405.5520000000001 198.896 405.5520000000001 198.16Q405.5520000000001 197.392 405.68000000000006 196.88Q405.5520000000001 196.336 405.5520000000001 195.6Q405.5520000000001 194.832 405.68000000000006 194.32Q405.5520000000001 193.776 405.5520000000001 193.04Q405.5520000000001 192.272 405.68000000000006 191.76Q405.5520000000001 191.216 405.5520000000001 190.48Q405.5520000000001 189.712 405.68000000000006 189.2Q405.5520000000001 188.656 405.5520000000001 187.92Q405.5520000000001 187.152 405.68000000000006 186.64Q405.5520000000001 186.096 405.5520000000001 185.36Q405.5520000000001 184.59199999999998 405.68000000000006 184.07999999999998H414.6400000000001Q414.7680000000001 184.59199999999998 414.7680000000001 185.36Q414.7680000000001 186.096 414.6400000000001 186.64H415.9200000000001Q416.0480000000001 187.152 416.0480000000001 187.92Q416.0480000000001 188.656 415.9200000000001 189.2ZM413.2320000000001 190.48Q413.2320000000001 189.712 413.36000000000007 189.2Q413.2320000000001 188.656 413.2320000000001 187.92Q413.2320000000001 187.152 413.36000000000007 186.64H408.24000000000007Q408.3680000000001 187.152 408.3680000000001 187.92Q408.3680000000001 188.656 408.24000000000007 189.2Q408.3680000000001 189.712 408.3680000000001 190.48Q408.3680000000001 191.216 408.24000000000007 191.76H413.36000000000007Q413.2320000000001 191.216 413.2320000000001 190.48ZM431.8480000000001 200.72Q431.8480000000001 201.456 431.7200000000001 202.0H422.7600000000001Q422.6320000000001 201.456 422.6320000000001 200.72Q422.6320000000001 199.952 422.7600000000001 199.44Q422.6320000000001 198.896 422.6320000000001 198.16Q422.6320000000001 197.392 422.7600000000001 196.88Q422.6320000000001 196.336 422.6320000000001 195.6Q422.6320000000001 194.832 422.7600000000001 194.32Q422.6320000000001 193.776 422.6320000000001 193.04Q422.6320000000001 192.272 422.7600000000001 191.76Q422.6320000000001 191.216 422.6320000000001 190.48Q422.6320000000001 189.712 422.7600000000001 189.2Q422.6320000000001 188.656 422.6320000000001 187.92Q422.6320000000001 187.152 422.7600000000001 186.64Q422.6320000000001 186.096 422.6320000000001 185.36Q422.6320000000001 184.59199999999998 422.7600000000001 184.07999999999998H425.3200000000001Q425.4480000000001 184.59199999999998 425.4480000000001 185.36Q425.4480000000001 186.096 425.3200000000001 186.64Q425.4480000000001 187.152 425.4480000000001 187.92Q425.4480000000001 188.656 425.3200000000001 189.2Q425.4480000000001 189.712 425.4480000000001 190.48Q425.4480000000001 191.216 425.3200000000001 191.76Q425.4480000000001 192.272 425.4480000000001 193.04Q425.4480000000001 193.776 425.3200000000001 194.32Q425.4480000000001 194.832 425.4480000000001 195.6Q425.4480000000001 196.336 425.3200000000001 196.88Q425.4480000000001 197.392 425.4480000000001 198.16Q425.4480000000001 198.896 425.3200000000001 199.44H431.7200000000001Q431.8480000000001 199.952 431.8480000000001 200.72ZM447.5200000000001 199.44Q447.64800000000014 199.952 447.64800000000014 200.72Q447.64800000000014 201.456 447.5200000000001 202.0H444.9600000000001Q444.8320000000001 201.456 444.8320000000001 200.72Q444.8320000000001 199.952 444.9600000000001 199.44Q444.8320000000001 198.896 444.8320000000001 198.16Q444.8320000000001 197.392 444.9600000000001 196.88H439.8400000000001Q439.96800000000013 197.392 439.96800000000013 198.16Q439.96800000000013 198.896 439.8400000000001 199.44Q439.96800000000013 199.952 439.96800000000013 200.72Q439.96800000000013 201.456 439.8400000000001 202.0H437.2800000000001Q437.1520000000001 201.456 437.1520000000001 200.72Q437.1520000000001 199.952 437.2800000000001 199.44Q437.1520000000001 198.896 437.1520000000001 198.16Q437.1520000000001 197.392 437.2800000000001 196.88H438.2400000000001Q438.11200000000014 196.336 438.11200000000014 195.6Q438.11200000000014 194.832 438.2400000000001 194.32Q438.11200000000014 193.776 438.11200000000014 193.04Q438.11200000000014 192.272 438.2400000000001 191.76H438.8800000000001Q438.7520000000001 191.216 438.7520000000001 190.48Q438.7520000000001 189.712 438.8800000000001 189.2H439.8400000000001Q439.7120000000001 188.656 439.7120000000001 187.92Q439.7120000000001 187.152 439.8400000000001 186.64H440.48000000000013Q440.3520000000001 186.096 440.3520000000001 185.36Q440.3520000000001 184.59199999999998 440.48000000000013 184.07999999999998H444.3200000000001Q444.4480000000001 184.59199999999998 444.4480000000001 185.36Q444.4480000000001 186.096 444.3200000000001 186.64H444.9600000000001Q445.08800000000014 187.152 445.08800000000014 187.92Q445.08800000000014 188.656 444.9600000000001 189.2H445.92000000000013Q446.0480000000001 189.712 446.0480000000001 190.48Q446.0480000000001 191.216 445.92000000000013 191.76H446.5600000000001Q446.6880000000001 192.272 446.6880000000001 193.04Q446.6880000000001 193.776 446.5600000000001 194.32Q446.6880000000001 194.832 446.6880000000001 195.6Q446.6880000000001 196.336 446.5600000000001 196.88H447.5200000000001Q447.64800000000014 197.392 447.64800000000014 198.16Q447.64800000000014 198.896 447.5200000000001 199.44ZM443.8720000000001 193.04Q443.8720000000001 192.272 444.0000000000001 191.76H443.3600000000001Q443.23200000000014 191.216 443.23200000000014 190.48Q443.23200000000014 189.712 443.3600000000001 189.2H441.4400000000001Q441.5680000000001 189.712 441.5680000000001 190.48Q441.5680000000001 191.216 441.4400000000001 191.76H440.8000000000001Q440.9280000000001 192.272 440.9280000000001 193.04Q440.9280000000001 193.776 440.8000000000001 194.32H444.0000000000001Q443.8720000000001 193.776 443.8720000000001 193.04ZM463.3200000000001 186.64Q463.44800000000015 187.152 463.44800000000015 187.92Q463.44800000000015 188.656 463.3200000000001 189.2H462.04000000000013Q462.1680000000001 189.712 462.1680000000001 190.48Q462.1680000000001 191.216 462.04000000000013 191.76H460.7600000000001Q460.88800000000015 192.272 460.88800000000015 193.04Q460.88800000000015 193.776 460.7600000000001 194.32H459.48000000000013Q459.6080000000001 194.832 459.6080000000001 195.6Q459.6080000000001 196.336 459.48000000000013 196.88Q459.6080000000001 197.392 459.6080000000001 198.16Q459.6080000000001 198.896 459.48000000000013 199.44Q459.6080000000001 199.952 459.6080000000001 200.72Q459.6080000000001 201.456 459.48000000000013 202.0H456.92000000000013Q456.79200000000014 201.456 456.79200000000014 200.72Q456.79200000000014 199.952 456.92000000000013 199.44Q456.79200000000014 198.896 456.79200000000014 198.16Q456.79200000000014 197.392 456.92000000000013 196.88Q456.79200000000014 196.336 456.79200000000014 195.6Q456.79200000000014 194.832 456.92000000000013 194.32H455.6400000000001Q455.5120000000001 193.776 455.5120000000001 193.04Q455.5120000000001 192.272 455.6400000000001 191.76H454.3600000000001Q454.23200000000014 191.216 454.23200000000014 190.48Q454.23200000000014 189.712 454.3600000000001 189.2H453.0800000000001Q452.9520000000001 188.656 452.9520000000001 187.92Q452.9520000000001 187.152 453.0800000000001 186.64Q452.9520000000001 186.096 452.9520000000001 185.36Q452.9520000000001 184.59199999999998 453.0800000000001 184.07999999999998H455.6400000000001Q455.76800000000014 184.59199999999998 455.76800000000014 185.36Q455.76800000000014 186.096 455.6400000000001 186.64Q455.76800000000014 187.152 455.76800000000014 187.92Q455.76800000000014 188.656 455.6400000000001 189.2H456.92000000000013Q457.0480000000001 189.712 457.0480000000001 190.48Q457.0480000000001 191.216 456.92000000000013 191.76H459.48000000000013Q459.35200000000015 191.216 459.35200000000015 190.48Q459.35200000000015 189.712 459.48000000000013 189.2H460.7600000000001Q460.6320000000001 188.656 460.6320000000001 187.92Q460.6320000000001 187.152 460.7600000000001 186.64Q460.6320000000001 186.096 460.6320000000001 185.36Q460.6320000000001 184.59199999999998 460.7600000000001 184.07999999999998H463.3200000000001Q463.44800000000015 184.59199999999998 463.44800000000015 185.36Q463.44800000000015 186.096 463.3200000000001 186.64ZM472.72000000000014 194.32Q472.8480000000001 194.832 472.8480000000001 195.6Q472.8480000000001 196.336 472.72000000000014 196.88Q472.8480000000001 197.392 472.8480000000001 198.16Q472.8480000000001 198.896 472.72000000000014 199.44H477.84000000000015Q477.96800000000013 199.952 477.96800000000013 200.72Q477.96800000000013 201.456 477.84000000000015 202.0H470.16000000000014Q470.03200000000015 201.456 470.03200000000015 200.72Q470.03200000000015 199.952 470.16000000000014 199.44Q470.03200000000015 198.896 470.03200000000015 198.16Q470.03200000000015 197.392 470.16000000000014 196.88Q470.03200000000015 196.336 470.03200000000015 195.6Q470.03200000000015 194.832 470.16000000000014 194.32Q470.03200000000015 193.776 470.03200000000015 193.04Q470.03200000000015 192.272 470.16000000000014 191.76Q470.03200000000015 191.216 470.03200000000015 190.48Q470.03200000000015 189.712 470.16000000000014 189.2Q470.03200000000015 188.656 470.03200000000015 187.92Q470.03200000000015 187.152 470.16000000000014 186.64Q470.03200000000015 186.096 470.03200000000015 185.36Q470.03200000000015 184.59199999999998 470.16000000000014 184.07999999999998H477.84000000000015Q477.96800000000013 184.59199999999998 477.96800000000013 185.36Q477.96800000000013 186.096 477.84000000000015 186.64H472.72000000000014Q472.8480000000001 187.152 472.8480000000001 187.92Q472.8480000000001 188.656 472.72000000000014 189.2Q472.8480000000001 189.712 472.8480000000001 190.48Q472.8480000000001 191.216 472.72000000000014 191.76H477.84000000000015Q477.96800000000013 192.272 477.96800000000013 193.04Q477.96800000000013 193.776 477.84000000000015 194.32ZM494.92000000000013 199.44Q495.0480000000002 199.952 495.0480000000002 200.72Q495.0480000000002 201.456 494.92000000000013 202.0H492.3600000000001Q492.23200000000014 201.456 492.23200000000014 200.72Q492.23200000000014 199.952 492.3600000000001 199.44H491.40000000000015Q491.27200000000016 198.896 491.27200000000016 198.16Q491.27200000000016 197.392 491.40000000000015 196.88H490.44000000000017Q490.3120000000001 196.336 490.3120000000001 195.6Q490.3120000000001 194.832 490.44000000000017 194.32H487.2400000000001Q487.36800000000017 194.832 487.36800000000017 195.6Q487.36800000000017 196.336 487.2400000000001 196.88Q487.36800000000017 197.392 487.36800000000017 198.16Q487.36800000000017 198.896 487.2400000000001 199.44Q487.36800000000017 199.952 487.36800000000017 200.72Q487.36800000000017 201.456 487.2400000000001 202.0H484.6800000000001Q484.55200000000013 201.456 484.55200000000013 200.72Q484.55200000000013 199.952 484.6800000000001 199.44Q484.55200000000013 198.896 484.55200000000013 198.16Q484.55200000000013 197.392 484.6800000000001 196.88Q484.55200000000013 196.336 484.55200000000013 195.6Q484.55200000000013 194.832 484.6800000000001 194.32Q484.55200000000013 193.776 484.55200000000013 193.04Q484.55200000000013 192.272 484.6800000000001 191.76Q484.55200000000013 191.216 484.55200000000013 190.48Q484.55200000000013 189.712 484.6800000000001 189.2Q484.55200000000013 188.656 484.55200000000013 187.92Q484.55200000000013 187.152 484.6800000000001 186.64Q484.55200000000013 186.096 484.55200000000013 185.36Q484.55200000000013 184.59199999999998 484.6800000000001 184.07999999999998H493.64000000000016Q493.76800000000014 184.59199999999998 493.76800000000014 185.36Q493.76800000000014 186.096 493.64000000000016 186.64H494.92000000000013Q495.0480000000002 187.152 495.0480000000002 187.92Q495.0480000000002 188.656 494.92000000000013 189.2H494.28000000000014Q494.40800000000013 189.712 494.40800000000013 190.48Q494.40800000000013 191.216 494.28000000000014 191.76H492.3600000000001Q492.48800000000017 192.272 492.48800000000017 193.04Q492.48800000000017 193.776 492.3600000000001 194.32H493.00000000000017Q493.12800000000016 194.832 493.12800000000016 195.6Q493.12800000000016 196.336 493.00000000000017 196.88H493.96000000000015Q494.08800000000014 197.392 494.08800000000014 198.16Q494.08800000000014 198.896 493.96000000000015 199.44ZM491.59200000000016 190.48Q491.59200000000016 189.712 491.72000000000014 189.2Q491.59200000000016 188.656 491.59200000000016 187.92Q491.59200000000016 187.152 491.72000000000014 186.64H487.2400000000001Q487.36800000000017 187.152 487.36800000000017 187.92Q487.36800000000017 188.656 487.2400000000001 189.2Q487.36800000000017 189.712 487.36800000000017 190.48Q487.36800000000017 191.216 487.2400000000001 191.76H491.72000000000014Q491.59200000000016 191.216 491.59200000000016 190.48ZM523.0000000000001 194.32Q523.1280000000002 194.832 523.1280000000002 195.6Q523.1280000000002 196.336 523.0000000000001 196.88H519.8000000000001Q519.6720000000001 196.336 519.6720000000001 195.6Q519.6720000000001 194.832 519.8000000000001 194.32Q519.6720000000001 193.776 519.6720000000001 193.04Q519.6720000000001 192.272 519.8000000000001 191.76H523.0000000000001Q523.1280000000002 192.272 523.1280000000002 193.04Q523.1280000000002 193.776 523.0000000000001 194.32ZM558.12 199.44Q558.248 199.952 558.248 200.72Q558.248 201.456 558.12 202.0H555.5600000000001Q555.432 201.456 555.432 200.72Q555.432 199.952 555.5600000000001 199.44H554.6Q554.472 198.896 554.472 198.16Q554.472 197.392 554.6 196.88H553.64Q553.5120000000001 196.336 553.5120000000001 195.6Q553.5120000000001 194.832 553.64 194.32H550.44Q550.568 194.832 550.568 195.6Q550.568 196.336 550.44 196.88Q550.568 197.392 550.568 198.16Q550.568 198.896 550.44 199.44Q550.568 199.952 550.568 200.72Q550.568 201.456 550.44 202.0H547.88Q547.7520000000001 201.456 547.7520000000001 200.72Q547.7520000000001 199.952 547.88 199.44Q547.7520000000001 198.896 547.7520000000001 198.16Q547.7520000000001 197.392 547.88 196.88Q547.7520000000001 196.336 547.7520000000001 195.6Q547.7520000000001 194.832 547.88 194.32Q547.7520000000001 193.776 547.7520000000001 193.04Q547.7520000000001 192.272 547.88 191.76Q547.7520000000001 191.216 547.7520000000001 190.48Q547.7520000000001 189.712 547.88 189.2Q547.7520000000001 188.656 547.7520000000001 187.92Q547.7520000000001 187.152 547.88 186.64Q547.7520000000001 186.096 547.7520000000001 185.36Q547.7520000000001 184.59199999999998 547.88 184.07999999999998H556.84Q556.9680000000001 184.59199999999998 556.9680000000001 185.36Q556.9680000000001 186.096 556.84 186.64H558.12Q558.248 187.152 558.248 187.92Q558.248 188.656 558.12 189.2H557.48Q557.6080000000001 189.712 557.6080000000001 190.48Q557.6080000000001 191.216 557.48 191.76H555.5600000000001Q555.688 192.272 555.688 193.04Q555.688 193.776 555.5600000000001 194.32H556.2Q556.328 194.832 556.328 195.6Q556.328 196.336 556.2 196.88H557.16Q557.288 197.392 557.288 198.16Q557.288 198.896 557.16 199.44ZM554.792 190.48Q554.792 189.712 554.9200000000001 189.2Q554.792 188.656 554.792 187.92Q554.792 187.152 554.9200000000001 186.64H550.44Q550.568 187.152 550.568 187.92Q550.568 188.656 550.44 189.2Q550.568 189.712 550.568 190.48Q550.568 191.216 550.44 191.76H554.9200000000001Q554.792 191.216 554.792 190.48ZM567.52 194.32Q567.648 194.832 567.648 195.6Q567.648 196.336 567.52 196.88Q567.648 197.392 567.648 198.16Q567.648 198.896 567.52 199.44H572.64Q572.768 199.952 572.768 200.72Q572.768 201.456 572.64 202.0H564.9599999999999Q564.832 201.456 564.832 200.72Q564.832 199.952 564.9599999999999 199.44Q564.832 198.896 564.832 198.16Q564.832 197.392 564.9599999999999 196.88Q564.832 196.336 564.832 195.6Q564.832 194.832 564.9599999999999 194.32Q564.832 193.776 564.832 193.04Q564.832 192.272 564.9599999999999 191.76Q564.832 191.216 564.832 190.48Q564.832 189.712 564.9599999999999 189.2Q564.832 188.656 564.832 187.92Q564.832 187.152 564.9599999999999 186.64Q564.832 186.096 564.832 185.36Q564.832 184.59199999999998 564.9599999999999 184.07999999999998H572.64Q572.768 184.59199999999998 572.768 185.36Q572.768 186.096 572.64 186.64H567.52Q567.648 187.152 567.648 187.92Q567.648 188.656 567.52 189.2Q567.648 189.712 567.648 190.48Q567.648 191.216 567.52 191.76H572.64Q572.768 192.272 572.768 193.04Q572.768 193.776 572.64 194.32ZM586.1999999999999 189.2Q586.328 189.712 586.328 190.48Q586.328 191.216 586.1999999999999 191.76H582.9999999999999Q582.872 191.216 582.872 190.48Q582.872 189.712 582.9999999999999 189.2Q582.872 188.656 582.872 187.92Q582.872 187.152 582.9999999999999 186.64H586.1999999999999Q586.328 187.152 586.328 187.92Q586.328 188.656 586.1999999999999 189.2ZM586.328 198.16Q586.328 198.896 586.1999999999999 199.44Q586.328 199.952 586.328 200.72Q586.328 201.456 586.1999999999999 202.0H582.9999999999999Q582.872 201.456 582.872 200.72Q582.872 199.952 582.9999999999999 199.44Q582.872 198.896 582.872 198.16Q582.872 197.392 582.9999999999999 196.88H586.1999999999999Q586.328 197.392 586.328 198.16ZM603.5999999999999 199.44Q603.7279999999998 199.952 603.7279999999998 200.72Q603.7279999999998 201.456 603.5999999999999 202.0H597.1999999999999Q597.0719999999999 201.456 597.0719999999999 200.72Q597.0719999999999 199.952 597.1999999999999 199.44H599.1199999999999Q598.9919999999998 198.896 598.9919999999998 198.16Q598.9919999999998 197.392 599.1199999999999 196.88Q598.9919999999998 196.336 598.9919999999998 195.6Q598.9919999999998 194.832 599.1199999999999 194.32Q598.9919999999998 193.776 598.9919999999998 193.04Q598.9919999999998 192.272 599.1199999999999 191.76Q598.9919999999998 191.216 598.9919999999998 190.48Q598.9919999999998 189.712 599.1199999999999 189.2Q598.9919999999998 188.656 598.9919999999998 187.92Q598.9919999999998 187.152 599.1199999999999 186.64H597.1999999999999Q597.0719999999999 186.096 597.0719999999999 185.36Q597.0719999999999 184.59199999999998 597.1999999999999 184.07999999999998H603.5999999999999Q603.7279999999998 184.59199999999998 603.7279999999998 185.36Q603.7279999999998 186.096 603.5999999999999 186.64H601.6799999999998Q601.8079999999999 187.152 601.8079999999999 187.92Q601.8079999999999 188.656 601.6799999999998 189.2Q601.8079999999999 189.712 601.8079999999999 190.48Q601.8079999999999 191.216 601.6799999999998 191.76Q601.8079999999999 192.272 601.8079999999999 193.04Q601.8079999999999 193.776 601.6799999999998 194.32Q601.8079999999999 194.832 601.8079999999999 195.6Q601.8079999999999 196.336 601.6799999999998 196.88Q601.8079999999999 197.392 601.8079999999999 198.16Q601.8079999999999 198.896 601.6799999999998 199.44ZM621.4479999999999 187.92Q621.4479999999999 188.656 621.3199999999998 189.2Q621.4479999999999 189.712 621.4479999999999 190.48Q621.4479999999999 191.216 621.3199999999998 191.76Q621.4479999999999 192.272 621.4479999999999 193.04Q621.4479999999999 193.776 621.3199999999998 194.32Q621.4479999999999 194.832 621.4479999999999 195.6Q621.4479999999999 196.336 621.3199999999998 196.88Q621.4479999999999 197.392 621.4479999999999 198.16Q621.4479999999999 198.896 621.3199999999998 199.44Q621.4479999999999 199.952 621.4479999999999 200.72Q621.4479999999999 201.456 621.3199999999998 202.0H618.7599999999999Q618.6319999999998 201.456 618.6319999999998 200.72Q618.6319999999998 199.952 618.7599999999999 199.44H617.1599999999999Q617.0319999999998 198.896 617.0319999999998 198.16Q617.0319999999998 197.392 617.1599999999999 196.88H616.1999999999998Q616.0719999999999 196.336 616.0719999999999 195.6Q616.0719999999999 194.832 616.1999999999998 194.32H614.9199999999998Q614.7919999999998 193.776 614.7919999999998 193.04Q614.7919999999998 192.272 614.9199999999998 191.76H613.6399999999999Q613.7679999999998 192.272 613.7679999999998 193.04Q613.7679999999998 193.776 613.6399999999999 194.32Q613.7679999999998 194.832 613.7679999999998 195.6Q613.7679999999998 196.336 613.6399999999999 196.88Q613.7679999999998 197.392 613.7679999999998 198.16Q613.7679999999998 198.896 613.6399999999999 199.44Q613.7679999999998 199.952 613.7679999999998 200.72Q613.7679999999998 201.456 613.6399999999999 202.0H611.0799999999998Q610.9519999999999 201.456 610.9519999999999 200.72Q610.9519999999999 199.952 611.0799999999998 199.44Q610.9519999999999 198.896 610.9519999999999 198.16Q610.9519999999999 197.392 611.0799999999998 196.88Q610.9519999999999 196.336 610.9519999999999 195.6Q610.9519999999999 194.832 611.0799999999998 194.32Q610.9519999999999 193.776 610.9519999999999 193.04Q610.9519999999999 192.272 611.0799999999998 191.76Q610.9519999999999 191.216 610.9519999999999 190.48Q610.9519999999999 189.712 611.0799999999998 189.2Q610.9519999999999 188.656 610.9519999999999 187.92Q610.9519999999999 187.152 611.0799999999998 186.64Q610.9519999999999 186.096 610.9519999999999 185.36Q610.9519999999999 184.59199999999998 611.0799999999998 184.07999999999998H614.2799999999999Q614.4079999999998 184.59199999999998 614.4079999999998 185.36Q614.4079999999998 186.096 614.2799999999999 186.64H615.2399999999999Q615.3679999999998 187.152 615.3679999999998 187.92Q615.3679999999998 188.656 615.2399999999999 189.2H616.1999999999998Q616.3279999999999 189.712 616.3279999999999 190.48Q616.3279999999999 191.216 616.1999999999998 191.76H617.4799999999998Q617.6079999999998 192.272 617.6079999999998 193.04Q617.6079999999998 193.776 617.4799999999998 194.32H618.7599999999999Q618.6319999999998 193.776 618.6319999999998 193.04Q618.6319999999998 192.272 618.7599999999999 191.76Q618.6319999999998 191.216 618.6319999999998 190.48Q618.6319999999998 189.712 618.7599999999999 189.2Q618.6319999999998 188.656 618.6319999999998 187.92Q618.6319999999998 187.152 618.7599999999999 186.64Q618.6319999999998 186.096 618.6319999999998 185.36Q618.6319999999998 184.59199999999998 618.7599999999999 184.07999999999998H621.3199999999998Q621.4479999999999 184.59199999999998 621.4479999999999 185.36Q621.4479999999999 186.096 621.3199999999998 186.64Q621.4479999999999 187.152 621.4479999999999 187.92ZM637.2479999999998 187.92Q637.2479999999998 188.656 637.1199999999998 189.2Q637.2479999999998 189.712 637.2479999999998 190.48Q637.2479999999998 191.216 637.1199999999998 191.76H636.1599999999997Q636.2879999999998 192.272 636.2879999999998 193.04Q636.2879999999998 193.776 636.1599999999997 194.32H635.1999999999998Q635.3279999999997 194.832 635.3279999999997 195.6Q635.3279999999997 196.336 635.1999999999998 196.88H634.5599999999998Q634.6879999999998 197.392 634.6879999999998 198.16Q634.6879999999998 198.896 634.5599999999998 199.44H633.2799999999997Q633.4079999999998 199.952 633.4079999999998 200.72Q633.4079999999998 201.456 633.2799999999997 202.0H630.7199999999998Q630.5919999999998 201.456 630.5919999999998 200.72Q630.5919999999998 199.952 630.7199999999998 199.44H629.4399999999998Q629.3119999999998 198.896 629.3119999999998 198.16Q629.3119999999998 197.392 629.4399999999998 196.88H628.7999999999998Q628.6719999999998 196.336 628.6719999999998 195.6Q628.6719999999998 194.832 628.7999999999998 194.32H627.8399999999998Q627.7119999999998 193.776 627.7119999999998 193.04Q627.7119999999998 192.272 627.8399999999998 191.76H626.8799999999998Q626.7519999999998 191.216 626.7519999999998 190.48Q626.7519999999998 189.712 626.8799999999998 189.2Q626.7519999999998 188.656 626.7519999999998 187.92Q626.7519999999998 187.152 626.8799999999998 186.64Q626.7519999999998 186.096 626.7519999999998 185.36Q626.7519999999998 184.59199999999998 626.8799999999998 184.07999999999998H629.4399999999998Q629.5679999999998 184.59199999999998 629.5679999999998 185.36Q629.5679999999998 186.096 629.4399999999998 186.64Q629.5679999999998 187.152 629.5679999999998 187.92Q629.5679999999998 188.656 629.4399999999998 189.2Q629.5679999999998 189.712 629.5679999999998 190.48Q629.5679999999998 191.216 629.4399999999998 191.76H630.3999999999997Q630.5279999999998 192.272 630.5279999999998 193.04Q630.5279999999998 193.776 630.3999999999997 194.32H631.3599999999998Q631.4879999999998 194.832 631.4879999999998 195.6Q631.4879999999998 196.336 631.3599999999998 196.88H632.6399999999998Q632.5119999999998 196.336 632.5119999999998 195.6Q632.5119999999998 194.832 632.6399999999998 194.32H633.5999999999998Q633.4719999999998 193.776 633.4719999999998 193.04Q633.4719999999998 192.272 633.5999999999998 191.76H634.5599999999998Q634.4319999999998 191.216 634.4319999999998 190.48Q634.4319999999998 189.712 634.5599999999998 189.2Q634.4319999999998 188.656 634.4319999999998 187.92Q634.4319999999998 187.152 634.5599999999998 186.64Q634.4319999999998 186.096 634.4319999999998 185.36Q634.4319999999998 184.59199999999998 634.5599999999998 184.07999999999998H637.1199999999998Q637.2479999999998 184.59199999999998 637.2479999999998 185.36Q637.2479999999998 186.096 637.1199999999998 186.64Q637.2479999999998 187.152 637.2479999999998 187.92ZM646.5199999999998 194.32Q646.6479999999998 194.832 646.6479999999998 195.6Q646.6479999999998 196.336 646.5199999999998 196.88Q646.6479999999998 197.392 646.6479999999998 198.16Q646.6479999999998 198.896 646.5199999999998 199.44H651.6399999999998Q651.7679999999998 199.952 651.7679999999998 200.72Q651.7679999999998 201.456 651.6399999999998 202.0H643.9599999999997Q643.8319999999998 201.456 643.8319999999998 200.72Q643.8319999999998 199.952 643.9599999999997 199.44Q643.8319999999998 198.896 643.8319999999998 198.16Q643.8319999999998 197.392 643.9599999999997 196.88Q643.8319999999998 196.336 643.8319999999998 195.6Q643.8319999999998 194.832 643.9599999999997 194.32Q643.8319999999998 193.776 643.8319999999998 193.04Q643.8319999999998 192.272 643.9599999999997 191.76Q643.8319999999998 191.216 643.8319999999998 190.48Q643.8319999999998 189.712 643.9599999999997 189.2Q643.8319999999998 188.656 643.8319999999998 187.92Q643.8319999999998 187.152 643.9599999999997 186.64Q643.8319999999998 186.096 643.8319999999998 185.36Q643.8319999999998 184.59199999999998 643.9599999999997 184.07999999999998H651.6399999999998Q651.7679999999998 184.59199999999998 651.7679999999998 185.36Q651.7679999999998 186.096 651.6399999999998 186.64H646.5199999999998Q646.6479999999998 187.152 646.6479999999998 187.92Q646.6479999999998 188.656 646.5199999999998 189.2Q646.6479999999998 189.712 646.6479999999998 190.48Q646.6479999999998 191.216 646.5199999999998 191.76H651.6399999999998Q651.7679999999998 192.272 651.7679999999998 193.04Q651.7679999999998 193.776 651.6399999999998 194.32ZM668.8479999999997 187.92Q668.8479999999997 188.656 668.7199999999997 189.2Q668.8479999999997 189.712 668.8479999999997 190.48Q668.8479999999997 191.216 668.7199999999997 191.76Q668.8479999999997 192.272 668.8479999999997 193.04Q668.8479999999997 193.776 668.7199999999997 194.32Q668.8479999999997 194.832 668.8479999999997 195.6Q668.8479999999997 196.336 668.7199999999997 196.88Q668.8479999999997 197.392 668.8479999999997 198.16Q668.8479999999997 198.896 668.7199999999997 199.44Q668.8479999999997 199.952 668.8479999999997 200.72Q668.8479999999997 201.456 668.7199999999997 202.0H666.1599999999997Q666.0319999999997 201.456 666.0319999999997 200.72Q666.0319999999997 199.952 666.1599999999997 199.44H664.5599999999997Q664.4319999999997 198.896 664.4319999999997 198.16Q664.4319999999997 197.392 664.5599999999997 196.88H663.5999999999997Q663.4719999999998 196.336 663.4719999999998 195.6Q663.4719999999998 194.832 663.5999999999997 194.32H662.3199999999997Q662.1919999999997 193.776 662.1919999999997 193.04Q662.1919999999997 192.272 662.3199999999997 191.76H661.0399999999997Q661.1679999999997 192.272 661.1679999999997 193.04Q661.1679999999997 193.776 661.0399999999997 194.32Q661.1679999999997 194.832 661.1679999999997 195.6Q661.1679999999997 196.336 661.0399999999997 196.88Q661.1679999999997 197.392 661.1679999999997 198.16Q661.1679999999997 198.896 661.0399999999997 199.44Q661.1679999999997 199.952 661.1679999999997 200.72Q661.1679999999997 201.456 661.0399999999997 202.0H658.4799999999997Q658.3519999999997 201.456 658.3519999999997 200.72Q658.3519999999997 199.952 658.4799999999997 199.44Q658.3519999999997 198.896 658.3519999999997 198.16Q658.3519999999997 197.392 658.4799999999997 196.88Q658.3519999999997 196.336 658.3519999999997 195.6Q658.3519999999997 194.832 658.4799999999997 194.32Q658.3519999999997 193.776 658.3519999999997 193.04Q658.3519999999997 192.272 658.4799999999997 191.76Q658.3519999999997 191.216 658.3519999999997 190.48Q658.3519999999997 189.712 658.4799999999997 189.2Q658.3519999999997 188.656 658.3519999999997 187.92Q658.3519999999997 187.152 658.4799999999997 186.64Q658.3519999999997 186.096 658.3519999999997 185.36Q658.3519999999997 184.59199999999998 658.4799999999997 184.07999999999998H661.6799999999997Q661.8079999999997 184.59199999999998 661.8079999999997 185.36Q661.8079999999997 186.096 661.6799999999997 186.64H662.6399999999998Q662.7679999999997 187.152 662.7679999999997 187.92Q662.7679999999997 188.656 662.6399999999998 189.2H663.5999999999997Q663.7279999999997 189.712 663.7279999999997 190.48Q663.7279999999997 191.216 663.5999999999997 191.76H664.8799999999997Q665.0079999999997 192.272 665.0079999999997 193.04Q665.0079999999997 193.776 664.8799999999997 194.32H666.1599999999997Q666.0319999999997 193.776 666.0319999999997 193.04Q666.0319999999997 192.272 666.1599999999997 191.76Q666.0319999999997 191.216 666.0319999999997 190.48Q666.0319999999997 189.712 666.1599999999997 189.2Q666.0319999999997 188.656 666.0319999999997 187.92Q666.0319999999997 187.152 666.1599999999997 186.64Q666.0319999999997 186.096 666.0319999999997 185.36Q666.0319999999997 184.59199999999998 666.1599999999997 184.07999999999998H668.7199999999997Q668.8479999999997 184.59199999999998 668.8479999999997 185.36Q668.8479999999997 186.096 668.7199999999997 186.64Q668.8479999999997 187.152 668.8479999999997 187.92ZM684.5199999999996 186.64H680.6799999999996Q680.8079999999997 187.152 680.8079999999997 187.92Q680.8079999999997 188.656 680.6799999999996 189.2Q680.8079999999997 189.712 680.8079999999997 190.48Q680.8079999999997 191.216 680.6799999999996 191.76Q680.8079999999997 192.272 680.8079999999997 193.04Q680.8079999999997 193.776 680.6799999999996 194.32Q680.8079999999997 194.832 680.8079999999997 195.6Q680.8079999999997 196.336 680.6799999999996 196.88Q680.8079999999997 197.392 680.8079999999997 198.16Q680.8079999999997 198.896 680.6799999999996 199.44Q680.8079999999997 199.952 680.8079999999997 200.72Q680.8079999999997 201.456 680.6799999999996 202.0H678.1199999999997Q677.9919999999996 201.456 677.9919999999996 200.72Q677.9919999999996 199.952 678.1199999999997 199.44Q677.9919999999996 198.896 677.9919999999996 198.16Q677.9919999999996 197.392 678.1199999999997 196.88Q677.9919999999996 196.336 677.9919999999996 195.6Q677.9919999999996 194.832 678.1199999999997 194.32Q677.9919999999996 193.776 677.9919999999996 193.04Q677.9919999999996 192.272 678.1199999999997 191.76Q677.9919999999996 191.216 677.9919999999996 190.48Q677.9919999999996 189.712 678.1199999999997 189.2Q677.9919999999996 188.656 677.9919999999996 187.92Q677.9919999999996 187.152 678.1199999999997 186.64H674.2799999999996Q674.1519999999997 186.096 674.1519999999997 185.36Q674.1519999999997 184.59199999999998 674.2799999999996 184.07999999999998H684.5199999999996Q684.6479999999997 184.59199999999998 684.6479999999997 185.36Q684.6479999999997 186.096 684.5199999999996 186.64ZM709.7199999999996 194.32Q709.8479999999996 194.832 709.8479999999996 195.6Q709.8479999999996 196.336 709.7199999999996 196.88Q709.8479999999996 197.392 709.8479999999996 198.16Q709.8479999999996 198.896 709.7199999999996 199.44H714.8399999999996Q714.9679999999996 199.952 714.9679999999996 200.72Q714.9679999999996 201.456 714.8399999999996 202.0H707.1599999999995Q707.0319999999996 201.456 707.0319999999996 200.72Q707.0319999999996 199.952 707.1599999999995 199.44Q707.0319999999996 198.896 707.0319999999996 198.16Q707.0319999999996 197.392 707.1599999999995 196.88Q707.0319999999996 196.336 707.0319999999996 195.6Q707.0319999999996 194.832 707.1599999999995 194.32Q707.0319999999996 193.776 707.0319999999996 193.04Q707.0319999999996 192.272 707.1599999999995 191.76Q707.0319999999996 191.216 707.0319999999996 190.48Q707.0319999999996 189.712 707.1599999999995 189.2Q707.0319999999996 188.656 707.0319999999996 187.92Q707.0319999999996 187.152 707.1599999999995 186.64Q707.0319999999996 186.096 707.0319999999996 185.36Q707.0319999999996 184.59199999999998 707.1599999999995 184.07999999999998H714.8399999999996Q714.9679999999996 184.59199999999998 714.9679999999996 185.36Q714.9679999999996 186.096 714.8399999999996 186.64H709.7199999999996Q709.8479999999996 187.152 709.8479999999996 187.92Q709.8479999999996 188.656 709.7199999999996 189.2Q709.8479999999996 189.712 709.8479999999996 190.48Q709.8479999999996 191.216 709.7199999999996 191.76H714.8399999999996Q714.9679999999996 192.272 714.9679999999996 193.04Q714.9679999999996 193.776 714.8399999999996 194.32ZM732.0479999999995 193.04Q732.0479999999995 193.776 731.9199999999995 194.32Q732.0479999999995 194.832 732.0479999999995 195.6Q732.0479999999995 196.336 731.9199999999995 196.88H730.6399999999995Q730.7679999999996 197.392 730.7679999999996 198.16Q730.7679999999996 198.896 730.6399999999995 199.44H729.3599999999996Q729.4879999999995 199.952 729.4879999999995 200.72Q729.4879999999995 201.456 729.3599999999996 202.0H721.6799999999995Q721.5519999999996 201.456 721.5519999999996 200.72Q721.5519999999996 199.952 721.6799999999995 199.44Q721.5519999999996 198.896 721.5519999999996 198.16Q721.5519999999996 197.392 721.6799999999995 196.88Q721.5519999999996 196.336 721.5519999999996 195.6Q721.5519999999996 194.832 721.6799999999995 194.32Q721.5519999999996 193.776 721.5519999999996 193.04Q721.5519999999996 192.272 721.6799999999995 191.76Q721.5519999999996 191.216 721.5519999999996 190.48Q721.5519999999996 189.712 721.6799999999995 189.2Q721.5519999999996 188.656 721.5519999999996 187.92Q721.5519999999996 187.152 721.6799999999995 186.64Q721.5519999999996 186.096 721.5519999999996 185.36Q721.5519999999996 184.59199999999998 721.6799999999995 184.07999999999998H729.3599999999996Q729.4879999999995 184.59199999999998 729.4879999999995 185.36Q729.4879999999995 186.096 729.3599999999996 186.64H730.6399999999995Q730.7679999999996 187.152 730.7679999999996 187.92Q730.7679999999996 188.656 730.6399999999995 189.2H731.9199999999995Q732.0479999999995 189.712 732.0479999999995 190.48Q732.0479999999995 191.216 731.9199999999995 191.76Q732.0479999999995 192.272 732.0479999999995 193.04ZM729.2319999999995 195.6Q729.2319999999995 194.832 729.3599999999996 194.32Q729.2319999999995 193.776 729.2319999999995 193.04Q729.2319999999995 192.272 729.3599999999996 191.76Q729.2319999999995 191.216 729.2319999999995 190.48Q729.2319999999995 189.712 729.3599999999996 189.2H728.0799999999995Q727.9519999999995 188.656 727.9519999999995 187.92Q727.9519999999995 187.152 728.0799999999995 186.64H724.2399999999996Q724.3679999999995 187.152 724.3679999999995 187.92Q724.3679999999995 188.656 724.2399999999996 189.2Q724.3679999999995 189.712 724.3679999999995 190.48Q724.3679999999995 191.216 724.2399999999996 191.76Q724.3679999999995 192.272 724.3679999999995 193.04Q724.3679999999995 193.776 724.2399999999996 194.32Q724.3679999999995 194.832 724.3679999999995 195.6Q724.3679999999995 196.336 724.2399999999996 196.88Q724.3679999999995 197.392 724.3679999999995 198.16Q724.3679999999995 198.896 724.2399999999996 199.44H728.0799999999995Q727.9519999999995 198.896 727.9519999999995 198.16Q727.9519999999995 197.392 728.0799999999995 196.88H729.3599999999996Q729.2319999999995 196.336 729.2319999999995 195.6ZM745.7999999999995 199.44Q745.9279999999994 199.952 745.9279999999994 200.72Q745.9279999999994 201.456 745.7999999999995 202.0H739.3999999999995Q739.2719999999995 201.456 739.2719999999995 200.72Q739.2719999999995 199.952 739.3999999999995 199.44H741.3199999999995Q741.1919999999994 198.896 741.1919999999994 198.16Q741.1919999999994 197.392 741.3199999999995 196.88Q741.1919999999994 196.336 741.1919999999994 195.6Q741.1919999999994 194.832 741.3199999999995 194.32Q741.1919999999994 193.776 741.1919999999994 193.04Q741.1919999999994 192.272 741.3199999999995 191.76Q741.1919999999994 191.216 741.1919999999994 190.48Q741.1919999999994 189.712 741.3199999999995 189.2Q741.1919999999994 188.656 741.1919999999994 187.92Q741.1919999999994 187.152 741.3199999999995 186.64H739.3999999999995Q739.2719999999995 186.096 739.2719999999995 185.36Q739.2719999999995 184.59199999999998 739.3999999999995 184.07999999999998H745.7999999999995Q745.9279999999994 184.59199999999998 745.9279999999994 185.36Q745.9279999999994 186.096 745.7999999999995 186.64H743.8799999999994Q744.0079999999995 187.152 744.0079999999995 187.92Q744.0079999999995 188.656 743.8799999999994 189.2Q744.0079999999995 189.712 744.0079999999995 190.48Q744.0079999999995 191.216 743.8799999999994 191.76Q744.0079999999995 192.272 744.0079999999995 193.04Q744.0079999999995 193.776 743.8799999999994 194.32Q744.0079999999995 194.832 744.0079999999995 195.6Q744.0079999999995 196.336 743.8799999999994 196.88Q744.0079999999995 197.392 744.0079999999995 198.16Q744.0079999999995 198.896 743.8799999999994 199.44ZM763.5199999999994 186.64H759.6799999999994Q759.8079999999994 187.152 759.8079999999994 187.92Q759.8079999999994 188.656 759.6799999999994 189.2Q759.8079999999994 189.712 759.8079999999994 190.48Q759.8079999999994 191.216 759.6799999999994 191.76Q759.8079999999994 192.272 759.8079999999994 193.04Q759.8079999999994 193.776 759.6799999999994 194.32Q759.8079999999994 194.832 759.8079999999994 195.6Q759.8079999999994 196.336 759.6799999999994 196.88Q759.8079999999994 197.392 759.8079999999994 198.16Q759.8079999999994 198.896 759.6799999999994 199.44Q759.8079999999994 199.952 759.8079999999994 200.72Q759.8079999999994 201.456 759.6799999999994 202.0H757.1199999999994Q756.9919999999994 201.456 756.9919999999994 200.72Q756.9919999999994 199.952 757.1199999999994 199.44Q756.9919999999994 198.896 756.9919999999994 198.16Q756.9919999999994 197.392 757.1199999999994 196.88Q756.9919999999994 196.336 756.9919999999994 195.6Q756.9919999999994 194.832 757.1199999999994 194.32Q756.9919999999994 193.776 756.9919999999994 193.04Q756.9919999999994 192.272 757.1199999999994 191.76Q756.9919999999994 191.216 756.9919999999994 190.48Q756.9919999999994 189.712 757.1199999999994 189.2Q756.9919999999994 188.656 756.9919999999994 187.92Q756.9919999999994 187.152 757.1199999999994 186.64H753.2799999999994Q753.1519999999995 186.096 753.1519999999995 185.36Q753.1519999999995 184.59199999999998 753.2799999999994 184.07999999999998H763.5199999999994Q763.6479999999995 184.59199999999998 763.6479999999995 185.36Q763.6479999999995 186.096 763.5199999999994 186.64ZM777.3999999999994 199.44Q777.5279999999993 199.952 777.5279999999993 200.72Q777.5279999999993 201.456 777.3999999999994 202.0H770.9999999999994Q770.8719999999994 201.456 770.8719999999994 200.72Q770.8719999999994 199.952 770.9999999999994 199.44H772.9199999999994Q772.7919999999993 198.896 772.7919999999993 198.16Q772.7919999999993 197.392 772.9199999999994 196.88Q772.7919999999993 196.336 772.7919999999993 195.6Q772.7919999999993 194.832 772.9199999999994 194.32Q772.7919999999993 193.776 772.7919999999993 193.04Q772.7919999999993 192.272 772.9199999999994 191.76Q772.7919999999993 191.216 772.7919999999993 190.48Q772.7919999999993 189.712 772.9199999999994 189.2Q772.7919999999993 188.656 772.7919999999993 187.92Q772.7919999999993 187.152 772.9199999999994 186.64H770.9999999999994Q770.8719999999994 186.096 770.8719999999994 185.36Q770.8719999999994 184.59199999999998 770.9999999999994 184.07999999999998H777.3999999999994Q777.5279999999993 184.59199999999998 777.5279999999993 185.36Q777.5279999999993 186.096 777.3999999999994 186.64H775.4799999999993Q775.6079999999994 187.152 775.6079999999994 187.92Q775.6079999999994 188.656 775.4799999999993 189.2Q775.6079999999994 189.712 775.6079999999994 190.48Q775.6079999999994 191.216 775.4799999999993 191.76Q775.6079999999994 192.272 775.6079999999994 193.04Q775.6079999999994 193.776 775.4799999999993 194.32Q775.6079999999994 194.832 775.6079999999994 195.6Q775.6079999999994 196.336 775.4799999999993 196.88Q775.6079999999994 197.392 775.6079999999994 198.16Q775.6079999999994 198.896 775.4799999999993 199.44ZM795.2479999999994 193.04Q795.2479999999994 193.776 795.1199999999993 194.32Q795.2479999999994 194.832 795.2479999999994 195.6Q795.2479999999994 196.336 795.1199999999993 196.88H794.1599999999993Q794.2879999999993 197.392 794.2879999999993 198.16Q794.2879999999993 198.896 794.1599999999993 199.44H792.5599999999994Q792.6879999999993 199.952 792.6879999999993 200.72Q792.6879999999993 201.456 792.5599999999994 202.0H787.4399999999994Q787.3119999999993 201.456 787.3119999999993 200.72Q787.3119999999993 199.952 787.4399999999994 199.44H785.8399999999993Q785.7119999999993 198.896 785.7119999999993 198.16Q785.7119999999993 197.392 785.8399999999993 196.88H784.8799999999993Q784.7519999999994 196.336 784.7519999999994 195.6Q784.7519999999994 194.832 784.8799999999993 194.32Q784.7519999999994 193.776 784.7519999999994 193.04Q784.7519999999994 192.272 784.8799999999993 191.76Q784.7519999999994 191.216 784.7519999999994 190.48Q784.7519999999994 189.712 784.8799999999993 189.2H785.8399999999993Q785.7119999999993 188.656 785.7119999999993 187.92Q785.7119999999993 187.152 785.8399999999993 186.64H787.4399999999994Q787.3119999999993 186.096 787.3119999999993 185.36Q787.3119999999993 184.59199999999998 787.4399999999994 184.07999999999998H792.5599999999994Q792.6879999999993 184.59199999999998 792.6879999999993 185.36Q792.6879999999993 186.096 792.5599999999994 186.64H794.1599999999993Q794.2879999999993 187.152 794.2879999999993 187.92Q794.2879999999993 188.656 794.1599999999993 189.2H795.1199999999993Q795.2479999999994 189.712 795.2479999999994 190.48Q795.2479999999994 191.216 795.1199999999993 191.76Q795.2479999999994 192.272 795.2479999999994 193.04ZM792.4319999999993 195.6Q792.4319999999993 194.832 792.5599999999994 194.32Q792.4319999999993 193.776 792.4319999999993 193.04Q792.4319999999993 192.272 792.5599999999994 191.76Q792.4319999999993 191.216 792.4319999999993 190.48Q792.4319999999993 189.712 792.5599999999994 189.2H791.5999999999993Q791.4719999999993 188.656 791.4719999999993 187.92Q791.4719999999993 187.152 791.5999999999993 186.64H788.3999999999993Q788.5279999999993 187.152 788.5279999999993 187.92Q788.5279999999993 188.656 788.3999999999993 189.2H787.4399999999994Q787.5679999999993 189.712 787.5679999999993 190.48Q787.5679999999993 191.216 787.4399999999994 191.76Q787.5679999999993 192.272 787.5679999999993 193.04Q787.5679999999993 193.776 787.4399999999994 194.32Q787.5679999999993 194.832 787.5679999999993 195.6Q787.5679999999993 196.336 787.4399999999994 196.88H788.3999999999993Q788.5279999999993 197.392 788.5279999999993 198.16Q788.5279999999993 198.896 788.3999999999993 199.44H791.5999999999993Q791.4719999999993 198.896 791.4719999999993 198.16Q791.4719999999993 197.392 791.5999999999993 196.88H792.5599999999994Q792.4319999999993 196.336 792.4319999999993 195.6ZM811.0479999999993 187.92Q811.0479999999993 188.656 810.9199999999993 189.2Q811.0479999999993 189.712 811.0479999999993 190.48Q811.0479999999993 191.216 810.9199999999993 191.76Q811.0479999999993 192.272 811.0479999999993 193.04Q811.0479999999993 193.776 810.9199999999993 194.32Q811.0479999999993 194.832 811.0479999999993 195.6Q811.0479999999993 196.336 810.9199999999993 196.88Q811.0479999999993 197.392 811.0479999999993 198.16Q811.0479999999993 198.896 810.9199999999993 199.44Q811.0479999999993 199.952 811.0479999999993 200.72Q811.0479999999993 201.456 810.9199999999993 202.0H808.3599999999993Q808.2319999999993 201.456 808.2319999999993 200.72Q808.2319999999993 199.952 808.3599999999993 199.44H806.7599999999993Q806.6319999999993 198.896 806.6319999999993 198.16Q806.6319999999993 197.392 806.7599999999993 196.88H805.7999999999993Q805.6719999999993 196.336 805.6719999999993 195.6Q805.6719999999993 194.832 805.7999999999993 194.32H804.5199999999993Q804.3919999999993 193.776 804.3919999999993 193.04Q804.3919999999993 192.272 804.5199999999993 191.76H803.2399999999993Q803.3679999999993 192.272 803.3679999999993 193.04Q803.3679999999993 193.776 803.2399999999993 194.32Q803.3679999999993 194.832 803.3679999999993 195.6Q803.3679999999993 196.336 803.2399999999993 196.88Q803.3679999999993 197.392 803.3679999999993 198.16Q803.3679999999993 198.896 803.2399999999993 199.44Q803.3679999999993 199.952 803.3679999999993 200.72Q803.3679999999993 201.456 803.2399999999993 202.0H800.6799999999993Q800.5519999999993 201.456 800.5519999999993 200.72Q800.5519999999993 199.952 800.6799999999993 199.44Q800.5519999999993 198.896 800.5519999999993 198.16Q800.5519999999993 197.392 800.6799999999993 196.88Q800.5519999999993 196.336 800.5519999999993 195.6Q800.5519999999993 194.832 800.6799999999993 194.32Q800.5519999999993 193.776 800.5519999999993 193.04Q800.5519999999993 192.272 800.6799999999993 191.76Q800.5519999999993 191.216 800.5519999999993 190.48Q800.5519999999993 189.712 800.6799999999993 189.2Q800.5519999999993 188.656 800.5519999999993 187.92Q800.5519999999993 187.152 800.6799999999993 186.64Q800.5519999999993 186.096 800.5519999999993 185.36Q800.5519999999993 184.59199999999998 800.6799999999993 184.07999999999998H803.8799999999993Q804.0079999999992 184.59199999999998 804.0079999999992 185.36Q804.0079999999992 186.096 803.8799999999993 186.64H804.8399999999993Q804.9679999999993 187.152 804.9679999999993 187.92Q804.9679999999993 188.656 804.8399999999993 189.2H805.7999999999993Q805.9279999999993 189.712 805.9279999999993 190.48Q805.9279999999993 191.216 805.7999999999993 191.76H807.0799999999992Q807.2079999999993 192.272 807.2079999999993 193.04Q807.2079999999993 193.776 807.0799999999992 194.32H808.3599999999993Q808.2319999999993 193.776 808.2319999999993 193.04Q808.2319999999993 192.272 808.3599999999993 191.76Q808.2319999999993 191.216 808.2319999999993 190.48Q808.2319999999993 189.712 808.3599999999993 189.2Q808.2319999999993 188.656 808.2319999999993 187.92Q808.2319999999993 187.152 808.3599999999993 186.64Q808.2319999999993 186.096 808.2319999999993 185.36Q808.2319999999993 184.59199999999998 808.3599999999993 184.07999999999998H810.9199999999993Q811.0479999999993 184.59199999999998 811.0479999999993 185.36Q811.0479999999993 186.096 810.9199999999993 186.64Q811.0479999999993 187.152 811.0479999999993 187.92Z" fill="#8a4a00"/></svg>
